<?xml version="1.0" encoding="UTF-8"?><svg id="Layer_2" xmlns="http://www.w3.org/2000/svg" viewBox="0 0 660.33 199"><defs><style>.cls-1{fill:#fff;stroke-width:0px;}</style></defs><g id="Layer_2-2"><g id="mlaAtw.tif"><path class="cls-1" d="M320.86,0c2.66.41,5.34.72,7.98,1.24,4.99.97,9.75,2.59,14.11,5.26,7.99,4.88,12.33,12.11,13.27,21.32.45,4.37.56,8.78.59,13.18.07,11.76.12,23.51-.03,35.27-.08,6.38,1.7,12,5.61,17,.86,1.1,1.71,2.22,2.43,3.42,1.27,2.11.97,3.67-.9,5.29-4.76,4.13-9.53,8.25-14.3,12.37-2.66,2.3-4.41,2.27-7.1-.02-3.14-2.68-5.86-5.73-8.13-9.18-.68-1.04-1.4-2.05-2.17-3.19-1.42,1.34-2.74,2.6-4.09,3.84-5.6,5.13-11.88,8.98-19.51,10.18-6.57,1.04-13.15,1.34-19.64-.44-9.53-2.61-16.05-8.57-19.1-18-2.81-8.68-2.75-17.47.38-26.06,3.88-10.66,11.83-17.19,22.24-21,7.09-2.6,14.51-3.66,21.96-4.53,4.51-.53,9.03-.99,13.69-1.49-.12-4.64.45-9.21-.78-13.66-1.59-5.76-5.76-8.42-11.42-9.03-6.7-.72-15.06,1.99-17.75,10.43-1.79,5.63-1.81,5.64-7.63,5.05-5.07-.51-10.14-1.05-15.21-1.59-3.24-.34-4.46-2.05-3.78-5.22,3.22-15.09,12.95-23.9,27.36-27.97,4.01-1.13,8.24-1.48,12.37-2.19.49-.08.97-.18,1.46-.27,2.7,0,5.4,0,8.1,0ZM328.16,60.82c-7.42.07-14.56.44-21.04,3.95-2.02,1.09-4.01,2.59-5.43,4.37-4.54,5.66-4.97,12.2-2.89,18.88,1.56,5.01,5.19,7.81,10.53,8.16,4.06.26,7.56-1.14,10.59-3.78,3.58-3.12,5.72-7.15,6.98-11.67,1.8-6.47,1.09-13.09,1.27-19.91Z"/><path class="cls-1" d="M53.13,0c2.6.41,5.22.73,7.81,1.24,5.23,1.03,10.21,2.76,14.73,5.67,7.37,4.74,11.53,11.55,12.51,20.18.51,4.51.63,9.07.66,13.61.08,11.85.09,23.71-.01,35.56-.05,6.3,1.66,11.91,5.55,16.88.86,1.1,1.7,2.23,2.45,3.41,1.34,2.12,1.08,3.79-.8,5.42-4.79,4.17-9.59,8.33-14.4,12.48-2.51,2.17-4.53,2.3-6.85-.04-2.84-2.86-5.45-5.96-8.09-9.01-.87-1.01-1.54-2.21-2.89-3.81-.35.61-.59,1.33-1.07,1.8-4.98,4.93-10.35,9.33-17.2,11.39-7.8,2.35-15.76,2.8-23.7.95-11.58-2.69-19.47-11.57-21.21-23.51-.18-1.23-.41-2.45-.61-3.67,0-2.3,0-4.6,0-6.9.36-2.01.61-4.04,1.09-6.01,3.12-12.77,11.45-20.73,23.49-25.14,8.85-3.24,18.18-4.14,27.46-5.15,2.71-.3,5.43-.59,8.48-.92-.28-4.36-.26-8.58-.89-12.7-.75-4.95-3.87-8.25-8.75-9.36-2.57-.58-5.38-.71-7.99-.37-5.54.72-9.8,3.57-12.1,8.87-.47,1.09-.74,2.28-1.07,3.42-.73,2.49-2.04,3.46-4.6,3.23-3.28-.3-6.56-.68-9.84-1.02-2.68-.28-5.37-.54-8.05-.86-2.67-.32-4.2-2-3.79-4.23,1.31-6.98,4.13-13.23,9.1-18.4C18.97,6.33,27.08,2.94,35.99,1.24c2.88-.55,5.82-.83,8.73-1.24,2.8,0,5.6,0,8.4,0ZM60.46,60.83c-7.25.02-13.95.49-20.23,3.37-5.12,2.35-8.66,6.17-9.76,11.76-.54,2.75-.66,5.68-.4,8.48.92,9.98,10.41,14.82,19.17,9.92,3.01-1.68,5.23-4.14,6.97-7.07,2.01-3.41,3.34-7.07,3.6-11.01.34-5.07.44-10.15.65-15.44Z"/><path class="cls-1" d="M660.33,112.56c-1.02,2.09-2.68,2.82-4.99,2.78-6.15-.1-12.3-.03-18.46-.04-3.24,0-4.56-1.31-4.56-4.53,0-20.06.09-40.11-.02-60.17-.03-4.62-.37-9.31-1.17-13.85-1.07-6.09-4.66-9.22-10.27-9.88-5.08-.6-10.14,2.33-12.78,7.46-1.9,3.69-2.91,7.66-3.26,11.77-.28,3.28-.39,6.59-.39,9.89-.04,18.06-.02,36.11-.02,54.17,0,3.87-1.27,5.15-5.1,5.16-6.1,0-12.2,0-18.31,0-3.18,0-4.6-1.39-4.61-4.56-.02-34.41-.03-68.82-.03-103.23,0-2.72,1.46-4.21,4.16-4.22,6.1-.03,12.2-.03,18.31,0,2.65.01,4.05,1.46,4.05,4.11,0,4.35,0,8.7,0,13.05,0,.53,0,1.06,0,1.58.12.03.24.07.36.1.24-.5.48-1,.7-1.51,1.85-4.29,4.09-8.35,7.3-11.8,5.18-5.56,11.77-7.68,19.16-7.77,8.54-.11,16.06,2.31,21.93,8.84,3.95,4.4,5.86,9.72,6.73,15.44.49,3.25.67,6.56,1,9.84.06.59.17,1.17.26,1.75v75.64Z"/><path class="cls-1" d="M266.83,199c-.72-.12-1.45-.33-2.17-.36-6.04-.25-12.11-.18-18.11-.77-8.63-.85-17.26-1.9-25.8-3.37-17.78-3.04-34.99-8.16-51.68-15-21.5-8.81-41.45-20.31-59.76-34.61-4.88-3.81-9.54-7.92-14.3-11.89-.12-.1-.22-.2-.33-.31-1.57-1.54-1.92-3.08-.99-4.39.84-1.18,2.7-1.36,4.52-.39,6.12,3.28,12.16,6.74,18.37,9.84,25.11,12.53,51.41,21.77,78.83,27.7,9.89,2.14,19.89,3.79,29.89,5.36,6.05.95,12.19,1.31,18.3,1.91,11.3,1.11,22.64,1.41,33.99,1.14,7.03-.16,14.07-.56,21.08-1.18,7.99-.71,15.98-1.57,23.92-2.75,15.82-2.35,31.38-5.92,46.7-10.5,11.69-3.49,23.16-7.6,34.4-12.35,1.7-.72,3.41-1.13,5.24-.48,3.3,1.17,4.42,4.77,2.03,7.31-1.56,1.65-3.5,2.96-5.39,4.27-14.71,10.21-30.66,18.02-47.43,24.19-16.69,6.14-33.82,10.61-51.41,13.19-6.95,1.02-13.95,1.76-20.95,2.38-4.87.44-9.77.46-14.66.7-.73.04-1.45.23-2.17.35h-2.1Z"/><path class="cls-1" d="M139.62,20.5c4.68-12.25,13.13-19.24,26.51-19.48,13.62-.24,21.74,7.26,26.87,19.41.4-.87.67-1.41.91-1.96,8.93-20.54,35.38-22.02,48.24-9.24,4.71,4.68,6.97,10.44,7.52,16.88.37,4.37.43,8.79.43,13.18,0,23.56-.04,47.12-.07,70.68,0,.5.01,1,0,1.5-.08,2.18-1.49,3.76-3.66,3.78-6.85.06-13.7.06-20.56.01-2.21-.02-3.68-1.64-3.7-3.89-.03-4.1-.01-8.2-.01-12.3.01-17.51.07-35.01,0-52.52-.02-3.68-.18-7.43-.9-11.02-1.05-5.21-4.57-7.86-9.87-8.22-8.25-.55-14.37,4.74-15.31,13.46-.41,3.77-.63,7.58-.65,11.37-.06,19.36-.03,38.71-.03,58.07,0,3.84-1.26,5.09-5.13,5.09-6.05,0-12.1,0-18.16,0-3.38,0-4.7-1.32-4.7-4.75.02-21.01.12-42.02,0-63.02-.02-4.01-.5-8.1-1.43-12-1.28-5.36-4.8-8.03-9.97-8.48-5.71-.49-10.11,1.82-12.55,6.61-1.76,3.46-2.31,7.22-2.59,11.01-.21,2.84-.27,5.7-.27,8.55-.02,19.01-.01,38.01-.01,57.02,0,3.92-1.16,5.06-5.12,5.06-6.05,0-12.1,0-18.16,0-3.31,0-4.67-1.35-4.67-4.61,0-34.21,0-68.43,0-102.64,0-3.46,1.32-4.77,4.81-4.77,5.7,0,11.4,0,17.11,0,3.47,0,4.75,1.31,4.75,4.83,0,4.05,0,8.09,0,12.14.12.08.25.17.37.25Z"/><path class="cls-1" d="M468.34,58.99c.15-12,2.08-23.6,7.7-34.35,6.04-11.52,15.05-19.55,27.93-22.44,21.96-4.92,41.4,4.96,50.67,25.49,4.82,10.68,6.53,21.96,6.39,33.59-.14,11.58-2.45,22.64-8.17,32.81-6.48,11.53-15.8,19.54-28.97,22.36-20.24,4.33-38.53-4.5-47.93-22.95-4.16-8.17-6.35-16.89-7.13-25.99-.24-2.84-.34-5.69-.5-8.53ZM531.16,59.82c-.26-4.84-.41-9.69-.82-14.51-.44-5.08-1.23-10.12-3.21-14.87-1.38-3.31-3.55-5.96-7.06-7.12-6.86-2.26-13.72-.59-17.42,6.62-2.02,3.93-3.03,8.16-3.45,12.49-1.11,11.63-1.12,23.26.57,34.84.67,4.62,1.93,9.08,4.51,13.06,5.14,7.95,15.52,6.64,20.01,1.29,2.31-2.74,3.69-5.92,4.59-9.33,1.95-7.37,2.11-14.91,2.28-22.47Z"/><path class="cls-1" d="M416.92,78.4c5.13.39,10.13.6,15.08,1.18,7.86.93,15.31,3.25,22.32,6.99,2.88,1.53,4.22,3.84,4.22,7.02,0,4.8,0,9.6,0,14.41,0,.54-.04,1.11-.18,1.63-.65,2.48-2.82,3.5-5.09,2.35-7.14-3.63-14.65-6.1-22.56-7.34-16.33-2.57-31.96-.38-46.8,7-3.68,1.83-6.01.41-6.01-3.74,0-5.1,0-10.2,0-15.31,0-3.91,1.11-7.41,3.39-10.65,12.75-18.17,25.42-36.4,38.11-54.6.36-.52.72-1.05,1.2-1.77-.72-.03-1.24-.08-1.77-.08-10.75,0-21.51,0-32.26,0-3.65,0-4.85-1.2-4.85-4.85,0-4.45-.01-8.9,0-13.35.01-2.99,1.31-4.28,4.32-4.28,22.01,0,44.02,0,66.02,0,3.05,0,4.41,1.35,4.42,4.38.01,3.35-.13,6.71.04,10.05.14,2.81-.71,5.21-2.25,7.44-3.45,4.97-6.91,9.93-10.38,14.89-8.71,12.45-17.44,24.9-26.15,37.35-.3.44-.58.89-.85,1.31Z"/><path class="cls-1" d="M408.71,133.09c-7.24.62-14.1,1.2-20.96,1.79-2.48.21-4.96.54-7.45.63-.72.03-1.9-.42-2.07-.93-.23-.68.03-1.95.56-2.4,1.66-1.42,3.45-2.73,5.35-3.8,7.24-4.06,15.09-6.3,23.3-7.27,3.52-.42,7.06-.87,10.59-.83,6.84.09,13.69.39,20.23,2.75,3.6,1.3,4.41,2.51,4.65,6.28.54,8.43-1.39,16.47-4.02,24.36-2.97,8.89-7.19,17.15-13.44,24.23-1.71,1.94-3.7,3.64-5.57,5.45-.11.1-.23.19-.36.27-1.09.66-2.31,1.38-3.45.42-1.04-.87-.53-2.12-.14-3.21,2.82-7.85,5.87-15.63,8.4-23.57,1.4-4.39,2.32-9.02,2.76-13.6.51-5.29-.81-7.94-6.25-9.03-4.09-.82-8.28-1.08-12.12-1.55Z"/></g></g></svg>