<?xml version="1.0" encoding="UTF-8"?><svg id="Layer_2" xmlns="http://www.w3.org/2000/svg" viewBox="0 0 672.86 294.78"><defs><style>.cls-1{fill:#fff;stroke-width:0px;}</style></defs><g id="Layer_2-2"><g id="To35Lt.tif"><path class="cls-1" d="M65,0c5.88.67,11.76,1.38,17.65,1.99,27.98,2.91,54.58,11,80.15,22.34,32.73,14.52,62.3,33.77,85.88,61.17,13.44,15.62,23.97,33.08,25.72,54.02,1.33,15.98-3.58,30.89-13.45,43.78-12.33,16.09-29.63,24.24-48.55,29.43-27.72,7.6-55.46,6.69-83.14-.41-.78-.2-1.59-.3-2.82-.52-.24,1.46-.51,2.68-.63,3.92-.65,6.41-3.1,9.2-8.91,10.09-6.5.99-10.49-.89-12.67-6.9-1.5-4.15-2.45-8.62-2.84-13.02-.27-3.09-1.33-4.69-4.01-6.08-21.89-11.33-40.89-26.15-55.21-46.49-5.97-8.48-5.33-16.01,2.43-23.04,8.71-7.9,19.65-11.7,30.63-14.95,8.71-2.57,17.75-4.02,26.56-6.27,1.37-.35,3.1-2.21,3.35-3.6,2.18-12.39,3.85-24.87,6.2-37.22.55-2.91,3.08-5.44,4.7-8.15,2.37,2.12,5.59,3.81,6.91,6.45,2.24,4.49,3.97,9.49,4.67,14.45.99,7.05,1.09,14.25,1.08,21.39,0,3.73,1.1,4.89,4.83,4.82,16.4-.29,32.35,2.94,48.1,7.1,8.59,2.27,16.53,6.14,22.94,12.54,6.7,6.69,8.5,15.63,4.81,23.29-3.74,7.77-12.28,12.93-20.23,11.61-3.78-.63-7.38-2.39-11.06-3.63-.04-.51-.08-1.02-.11-1.54,1.7-1.11,3.34-2.3,5.1-3.29,1.59-.89,3.38-1.42,4.94-2.35,5.33-3.15,5.61-7.46.04-9.97-6.28-2.83-12.97-5.21-19.72-6.42-11.9-2.13-23.98-3.18-35.98-4.75-3.97-.52-5.59.66-5.59,5.06,0,16.81-.24,33.63-.75,50.43-.15,5.14.95,7.42,6.64,8.5,27.74,5.25,54.89,4.13,81.12-6.74,6.95-2.88,13.79-6.91,19.45-11.84,16.18-14.1,19.23-34.84,9.26-55.96-9-19.05-23.51-33.37-39.91-45.89-36.29-27.71-76.99-45.63-122.01-53.3-20.04-3.41-40.26-4.66-60.4-.27-2.35.51-4.62,1.41-6.93,2.13-.03.45-.07.91-.1,1.36,4.29,1.57,8.58,3.14,13.05,4.78-4.54,6.58-18.51,5.58-26.17-1.07v-4c1.34-2.06,2.45-4.33,4.07-6.14,2.94-3.28,5.66-7.73,9.42-9.12,7.49-2.77,15.58-4.04,23.5-5.46C43.26,1.15,49.66.73,56,0,59,0,62,0,65,0ZM104.73,129.56c-6.31.47-11.46.44-16.45,1.31-12.04,2.1-24.14,4.1-35.96,7.14-7.92,2.04-8.71,6.86-3.24,12.84,13.39,14.63,29.62,25.06,47.92,32.42,1.14.46,2.39.66,4.29,1.18,1.14-18.32,2.25-36.02,3.43-54.89Z"/><path class="cls-1" d="M618.38,114.33c1.36,6.45.54,11.52-2.28,16.28-4.07,6.87-8.6,13.51-12.1,20.66-2.96,6.04-4.87,12.61-6.96,19.04-.56,1.72-.08,3.77,1.08,6.1,1.03-1.37,2.08-2.74,3.09-4.12,10.15-13.87,20.67-27.42,34.34-38.1,2.74-2.14,5.67-4.14,8.76-5.71,13.49-6.86,24.34-1.43,27.4,13.4,7.18,34.76-21.21,65.3-44.07,71.04-5.03,1.26-10.56.44-15.8,1.02-1.7.19-4.11,1.43-4.74,2.84-9.97,22.35-17.06,45.59-21.39,69.69-.52,2.88-2.22,5.54-3.37,8.31-3.01-1.42-6.64-2.19-8.94-4.36-9.56-9-10.55-20.66-8.73-32.77,2.99-19.9,10.54-38.31,19.26-56.26,1.41-2.9,1.62-5.23.27-8.34-5.41-12.51-3.61-25.06,1.08-37.3,5.77-15.06,15.21-27.61,27.43-38.07,1.5-1.29,3.45-2.06,5.65-3.35ZM620.13,189.15c.27.65.53,1.3.8,1.95,5.7-1.95,11.6-3.45,17.05-5.95,13.75-6.31,24-22.53,23.17-36.16-.1-1.63-.95-4.18-2.05-4.55-1.48-.5-4.08.11-5.27,1.23-13.48,12.75-24.52,27.41-33.7,43.48Z"/><path class="cls-1" d="M374.08,110.23c10.01,1.3,20.02,2.59,30.03,3.89.66.09,1.37.12,1.94.41,2.89,1.49,7.56,1.22,7.4,5.99-.16,4.79-4.7,8.9-9.65,9.22-7.13.46-14.29.49-21.41,1.1-13.88,1.18-27.73,2.61-41.59,3.99-1.13.11-2.39.36-3.3.98-1.12.75-1.95,1.95-2.9,2.96,1.1.81,2.13,2.19,3.32,2.35,10.83,1.48,21.74,2.48,32.54,4.18,7.98,1.26,16.14,2.48,23.65,5.26,12.35,4.57,14.15,13.18,14.57,24.67.1,2.79-.46,5.63-.94,8.41-1.21,6.93-4.35,12.52-11.25,15.29-23.29,9.34-46.05,11.23-67.42-5.04-1.84-1.4-3.55-3.04-5.09-4.78-4.24-4.78-6.27-10.45-4.24-16.6,2.16-6.54,7.49-9.85,14.08-11.29,9.84-2.14,19.53-.72,29.07,1.61,5.41,1.32,10.82,3.17,15.81,5.62,4.86,2.4,4.61,5.98-.31,8.26-10.06,4.67-19.99,3.18-29.78-1.16-3.62-1.6-7.25-3.29-11.04-4.39-4.18-1.22-7.96,1.05-8.97,5-1.03,4.05,1.86,6.29,4.86,6.89,7.26,1.45,14.68,2.86,22.05,2.9,10.47.06,20.85-1.66,30.32-6.67,3.66-1.94,8.04-3.92,7.63-8.85-.41-4.92-5.01-6.72-8.99-7.45-12.83-2.37-25.77-4.21-38.67-6.19-7.19-1.1-14.49-1.68-21.59-3.22-6.56-1.43-8.17-4.3-8.3-11.08-.23-11.65,4.9-19.55,15.76-24,11.53-4.73,28.64-7.9,42.43-8.27Z"/><path class="cls-1" d="M520.64,139.84c-4.94-3.8-9.94-6.69-13.63-10.76-3.66-4.03-2.22-7.17,3.25-7.74,18.45-1.9,36.92-3.75,55.43-4.96,8.67-.57,16.9,6.56,18.89,14.91.72,3.02-.02,5.3-3.68,5.6-11.4.94-22.79,2.36-34.21,2.69-5.35.16-8.42,1.33-9.12,6.88-.22,1.75-1.04,3.42-1.79,5.76,5.65,0,10.76,0,15.88,0,1.33,0,2.66-.01,4,.02,8.94.2,12.25,4.68,8.77,13.05-.77,1.86-4.8,3.17-7.41,3.32-7.8.46-15.65.39-23.47.17-3.8-.1-5.84,1.21-6.75,4.92-.82,3.37-1.99,6.67-3.18,9.93-1.19,3.23-1.08,4.54,3.13,3.87,10.79-1.7,21.67-2.89,32.51-4.29,5.15-.66,8.09,2.06,9.95,6.47,1.89,4.49-.64,7.29-3.86,9.68-13,9.67-27.05,16.93-43.66,17.36-9.66.25-19.57-9.33-20.54-19.03-.84-8.48,1.14-16.43,3.92-24.35.86-2.46,1.06-5.5.5-8.04-1.77-7.99-.91-9.8,6.94-12.24.86-.27,1.86-.92,2.26-1.68,2.26-4.22,4.35-8.53,5.86-11.54Z"/><path class="cls-1" d="M477.13,173.57c-1.47-10.27-2.57-20.61-4.5-30.79-2.22-11.7-5.34-23.22-7.68-34.9-.46-2.28.87-4.91,1.38-7.38,2.37.73,5.24.84,7.03,2.28,11.12,8.95,16.84,21.24,20.01,34.75,3.89,16.59,3.92,33.32-.83,49.73-1.28,4.42-4.06,8.82-7.27,12.16-5.27,5.51-14.1,5.55-18.49-.61-7.66-10.76-14.13-22.37-20.95-33.72-2.43-4.05-4.41-8.36-6.6-12.56-.62.05-1.23.1-1.85.15-.53,3.57-1.22,7.13-1.56,10.73-1.07,11.39-1.82,22.82-3.09,34.19-.75,6.69-3.31,9.16-8.27,9.4-5.1.25-8.7-2.21-9.48-8.78-.99-8.36-1.51-17.01-.52-25.33,1.46-12.28,4.17-24.45,6.87-36.54.96-4.28,3.02-8.48,5.36-12.23,3.81-6.08,8.95-6.67,13.35-1.1,6.37,8.07,12.15,16.63,17.75,25.27,4.7,7.24,8.72,14.92,13.18,22.32.9,1.5,2.42,2.64,3.65,3.94.83-.34,1.67-.68,2.5-1.01Z"/><path class="cls-1" d="M285.54,94.02c-.59.7-.93,1.06-1.22,1.45-2.11,2.9-3.86,7.28-8.17,5.93-4.57-1.43-7.25-5.81-7.02-10.51.24-4.91-1.25-8.63-3.61-12.8-4.22-7.46-3.32-15.38.93-22.75,9.24-16.05,23.57-24.8,41.42-28.06,5.02-.92,10.24-1.17,15.35-.99,6.53.23,12.88,1.38,16.78,7.8.62,1.02,2.45,1.54,3.81,1.84,12.98,2.92,17.72,10.94,12.97,23.49-5.67,14.97-17.37,24.37-31.17,31.44-12.79,6.55-26.03,8.56-40.05,3.16ZM293.3,78.21c.27.47.53.93.8,1.4,2.71.36,5.41.87,8.14,1.04,15.32.97,31.87-4.03,40.39-19.22,2.02-3.6,3.43-7.53.59-11.17-2.76-3.54-6.8-2.85-10.59-1.82-9.91,2.69-17.89,8.68-25.31,15.39-4.95,4.49-9.37,9.57-14.03,14.38ZM304.19,43.4c-11.28-2.21-27.14,9.64-27.92,21.39-.11,1.6.61,3.25.89,4.62,9.25-8.9,18.13-17.45,27.03-26.01Z"/><path class="cls-1" d="M306.22,172.35c-.47,8.61-.99,17.22-1.39,25.84-.22,4.72-2.06,7.91-7.11,8.55-5.69.73-11.35-1.94-12.63-6.44-.94-3.32-1.74-6.82-1.74-10.24.05-23.73.75-47.42,4.82-70.88.31-1.76.85-3.57,1.7-5.14,2.06-3.81,6.7-4.53,8.88-.92,2.58,4.28,5.54,9.15,5.77,13.88.73,15.08.27,30.21.27,45.32.48,0,.96.01,1.43.02Z"/></g></g></svg>