<?xml version="1.0" encoding="UTF-8"?><svg id="Layer_2" xmlns="http://www.w3.org/2000/svg" viewBox="0 0 510.41 215.34"><defs><style>.cls-1{fill:#fff;stroke-width:0px;}</style></defs><g id="Layer_2-2"><g id="_9BiewW.tif"><path class="cls-1" d="M238.46,0c2.92,0,5.85,0,8.77,0,.29.05.57.13.87.16,3.93.41,7.88.65,11.78,1.25,13.95,2.12,27.04,6.79,38.97,14.31,29.68,18.71,46.73,45.57,50.99,80.4,1.52,12.4.64,24.74-2.34,36.88-6.25,25.41-19.88,46.01-40.93,61.54-21.12,15.58-45,22.06-71.1,20.62-9.73-.54-19.21-2.48-28.4-5.74-23.75-8.44-42.48-23.28-55.85-44.63-12.77-20.4-17.85-42.72-15.87-66.68.72-8.67,2.48-17.13,5.33-25.35,7.83-22.52,21.57-40.59,41.24-54.07,15.02-10.3,31.67-16.26,49.79-18.1,2.24-.23,4.49-.39,6.74-.58ZM260.91,107.71c0-14.75,0-29.49,0-44.24,0-1.09-.01-2.2-.16-3.28-1.25-9.47-9.59-16.52-19.7-15.78-9.05.66-16.53,8.6-16.54,17.97-.03,30.22-.06,60.45.02,90.67.02,7.1,3.37,12.54,9.62,15.85,6.28,3.33,12.67,3.01,18.62-.91,5.56-3.65,8.13-9.02,8.14-15.64,0-14.88,0-29.76,0-44.64Z"/><path class="cls-1" d="M318.21,0c23.33,0,46.65,0,69.98,0,.11.27.2.55.34.81,8.4,14.8,16.8,29.61,25.21,44.41.15.27.34.52.57.88.27-.46.46-.81.65-1.15,6.29-11.08,12.59-22.15,18.87-33.24,2.21-3.89,4.39-7.8,6.59-11.7,23.03,0,46.06,0,69.08,0,.3,0,.6.12.9.19-.2.29-.44.57-.61.87-19.99,35.2-39.98,70.39-60,105.58-.46.8-.42,1.36.02,2.14,19.93,35.04,39.84,70.1,59.74,105.15.22.39.41.79.66,1.27h-1.14c-22.53,0-45.06,0-67.58.02-.84,0-1.28-.25-1.69-.98-8.28-14.64-16.59-29.27-24.9-43.89-.18-.32-.39-.63-.64-1.04-.26.44-.43.73-.59,1.02-8.31,14.63-16.62,29.25-24.91,43.89-.4.71-.81,1.02-1.68,1.02-22.53-.03-45.06-.02-67.58-.02h-1.18c.24-.47.4-.78.57-1.09,19.97-35.17,39.94-70.34,59.93-105.5.38-.66.39-1.13,0-1.8-17.06-29.99-34.1-60-51.13-90.01C324.53,11.21,321.37,5.6,318.21,0Z"/><path class="cls-1" d="M133.98,0c.26,3.64.54,7.28.79,10.92.51,7.49,1.02,14.97,1.52,22.46.43,6.36.85,12.72,1.27,19.08.14,2.05.27,4.1.42,6.26h-72.67v28.2h59.19v58.92h-59.22v69.29H0c0-.43,0-.88,0-1.33,0-70.8,0-141.6,0-212.41,0-.46,0-.93,0-1.39C44.66,0,89.32,0,133.98,0Z"/></g></g></svg>