<?xml version="1.0" encoding="UTF-8"?><svg id="Layer_2" xmlns="http://www.w3.org/2000/svg" viewBox="0 0 511.96 210.83"><defs><style>.cls-1{fill:#fff;stroke-width:0px;}</style></defs><g id="Layer_2-2"><g id="s1lZey.tif"><path class="cls-1" d="M511.96,101.92v6c-.29,1.79-.65,3.57-.85,5.37-5.11,44.65-28.54,75.37-70.53,91.41-8.42,3.22-17.72,4.15-26.61,6.14h-15c-1.11-.29-2.2-.73-3.33-.84-24.91-2.45-46.08-12.81-63.14-30.94-7.22-7.67-13.19-16.51-19.61-24.67-.43,2.37-.81,5.33-1.53,8.2-6.9,27.48-31.9,46.93-60.9,47.09-27.83.15-55.66,0-83.49-.03-1.42,0-2.84-.23-4.2-.35V3.43c2.41,0,4.39,0,6.37,0,27.83,0,55.67.33,83.49-.1,25.46-.39,42.55,12.23,54.02,33.59,3.31,6.16,4.72,13.32,6.99,19.99.51-.84,1.27-2.05,1.98-3.28,12.66-22,30.51-38.16,54.41-46.98C378.36,3.58,387.31,2.17,395.97,0c7,0,14,0,21,0,1.11.3,2.2.72,3.32.9,42.41,6.62,71.31,29.96,85.58,70.4,3.43,9.71,4.13,20.39,6.08,30.62ZM459.29,104.95c.05-28.99-23.24-52.41-52.22-52.51-28.86-.1-52.29,23.35-52.33,52.37-.04,29.06,23.18,52.41,52.2,52.47,28.94.06,52.31-23.29,52.36-52.33ZM216.06,84.09c9.35,0,18.44.12,27.52-.04,8.27-.15,14.37-6.79,15.14-16.11.69-8.37-4.84-17.49-12.28-18.08-10.01-.79-20.13-.2-30.38-.2v34.42ZM215.94,161.6c9.94,0,19.24.34,28.5-.1,7.89-.38,13.72-7.67,14.19-16.61.43-8.22-5.18-17.24-12.23-17.71-10.04-.68-20.15-.17-30.46-.17v34.6ZM301.72,117.69v-23.69c-5.72,3.66-11.5,7.35-16.9,10.81,5.37,4.09,11.09,8.45,16.9,12.88Z"/><path class="cls-1" d="M0,209.83V3h57.95v76.57h36.26V3.35h55.62v205.94h-55.96v-79.34h-36.32v79.87H0Z"/><path class="cls-1" d="M406.91,63.76c-22.89.04-41.08,18.38-41,41.34.08,22.66,18.29,40.86,40.94,40.92,22.93.06,41.22-18.17,41.23-41.11.01-22.96-18.23-41.19-41.17-41.15Z"/><path class="cls-1" d="M406.91,63.76c22.94-.04,41.18,18.2,41.17,41.15-.01,22.94-18.3,41.17-41.23,41.11-22.65-.06-40.87-18.27-40.94-40.92-.08-22.96,18.11-41.3,41-41.34Z"/></g></g></svg>