<?xml version="1.0" encoding="UTF-8"?><svg id="Layer_2" xmlns="http://www.w3.org/2000/svg" viewBox="0 0 696.25 187.08"><defs><style>.cls-1{fill:#fff;stroke-width:0px;}</style></defs><g id="Layer_2-2"><g id="_1TWSPE.tif"><path class="cls-1" d="M.02.03c8.68,0,17.37.04,26.05-.03,1.44-.01,2.11.35,2.62,1.77,12.17,33.88,24.39,67.74,36.61,101.61.18.5.39.98.88,1.43V.14h29.23v175.13c-4.36.47-8.71.93-13.06,1.41-5.64.62-11.28,1.22-16.9,1.93-1.51.19-2.18-.11-2.73-1.68-10.71-30.98-21.5-61.93-32.28-92.88-.21-.6-.47-1.18-1.01-1.69v100.59c-4.39.59-8.67,1.17-12.95,1.75-5.07.69-10.14,1.39-15.2,2.09-.2.03-.39.19-.58.28-.22-.11-.6-.18-.64-.34-.1-.36-.03-.77-.03-1.16V.03Z"/><path class="cls-1" d="M695.78,187.08c-2.79-.45-5.56-.97-8.36-1.35-7.77-1.06-15.54-2.08-23.31-3.08-1.06-.14-1.44-.72-1.79-1.63-6.62-17.15-13.28-34.29-19.93-51.44-.25-.66-.54-1.3-.97-2.34-7.29,16.89-14.44,33.44-21.6,50.03-10.24-1.07-20.39-2.13-30.78-3.21,1.68-3.9,3.26-7.56,4.84-11.22,10.52-24.39,21.02-48.78,31.57-73.16.55-1.27.61-2.33.1-3.63-10.96-28.16-21.87-56.34-32.8-84.52-.16-.41-.3-.82-.51-1.39h31.66c6.26,16.15,12.55,32.35,18.96,48.89.55-1.17.98-2.05,1.37-2.94,6.39-14.79,12.78-29.58,19.13-44.39.53-1.24,1.12-1.74,2.53-1.73,9.46.07,18.92.04,28.39.04h1.98c-.38.93-.67,1.67-.99,2.41-12.13,28.11-24.25,56.22-36.41,84.32-.53,1.22-.54,2.24-.06,3.47,12.31,31.63,24.58,63.28,36.85,94.93.24.61.33,1.28.48,1.92h-.33Z"/><path class="cls-1" d="M123.79.11h81.2v28.89h-51.83v39.55c.62,0,1.26,0,1.91,0,11.85-.09,23.7-.15,35.56-.3,1.59-.02,2.07.4,2.05,2.02-.08,8.35-.04,16.7-.04,25.05v1.98h-39.53v43.82c17.3-1.18,34.53-2.35,51.88-3.53v28.71c-27.01,2.01-54.04,4.01-81.2,6.03V.11Z"/><path class="cls-1" d="M402.38,95.75h-39.6v66.57h-29.27V.18h81.53v28.85h-52.19v37.82h39.52v28.9Z"/><path class="cls-1" d="M283.98,163.21c-9.93.31-19.53.61-29.33.91V29.13h-30.6V.17h90.49v28.86h-30.56v134.18Z"/><path class="cls-1" d="M513.53,139.16v28.7c-3.34-.19-6.59-.39-9.84-.57-9.83-.56-19.65-1.19-29.48-1.66-12.77-.61-25.55-1.12-38.33-1.62-1.4-.05-1.88-.41-1.88-1.91.04-53.44.03-106.87.04-160.31,0-.54.05-1.09.08-1.73h29.19v2.32c0,43.75,0,87.5,0,131.25,0,2.8-.37,2.55,2.55,2.72,15.66.87,31.31,1.77,46.96,2.67.21.01.42.08.71.14Z"/><path class="cls-1" d="M537.97.11h29.07v171.92c-9.7-.8-19.32-1.6-29.07-2.4V.11Z"/></g></g></svg>