<?xml version="1.0" encoding="UTF-8"?><svg id="Layer_2" xmlns="http://www.w3.org/2000/svg" viewBox="0 0 2558.99 690.45"><defs><style>.cls-1{fill:#000;stroke-width:0px;}</style></defs><g id="Layer_1-2"><g id="_2ZTWGK.tif"><path class="cls-1" d="M351.86,0c-.06,2.32-.18,4.65-.18,6.97,0,210.5,0,421.01,0,631.51v7.58c-9.45,1.43-18.73,3.13-28.07,4.19-28.27,3.21-56.58,6.06-84.84,9.34-3.99.46-5.42-.61-6.64-4.2-29.96-87.98-60.02-175.93-90.07-263.88-9.93-29.05-19.88-58.1-29.84-87.15-.41-1.2-.94-2.37-2.2-3.45v374.66c-7.14.91-13.85,1.71-20.55,2.63-28.34,3.9-56.66,7.84-85,11.75-1.48.2-2.98.33-4.47.49C0,460.3,0,230.15,0,0,34.32,0,68.64,0,102.96,0c.31,1.43.47,2.92.96,4.29,45.57,127.19,91.17,254.37,136.79,381.55.43,1.21,1.06,2.34,1.6,3.51.33-.11.66-.23,1-.34v-5.43c0-125.88,0-251.77-.02-377.65,0-1.98-.25-3.96-.38-5.94C279.22,0,315.54,0,351.86,0Z"/><path class="cls-1" d="M2558.99,0c-9.35,22.17-18.77,44.31-28.05,66.51-35.58,85.17-71.07,170.36-106.75,255.49-1.95,4.64-1.98,8.5-.2,13.19,44.18,116.37,88.22,232.8,132.29,349.22.64,1.68,1.21,3.38,2.11,5.93-8.39-1.13-16.07-1.97-23.68-3.23-31.01-5.11-61.98-10.42-93-15.42-3.39-.55-4.67-2.07-5.78-4.94-24.5-63.14-49.08-126.25-73.65-189.36-.65-1.68-1.36-3.33-2.5-6.11-1.22,2.63-2.04,4.28-2.77,5.98-24.75,57.49-49.52,114.97-74.15,172.51-1.66,3.88-3.41,4.86-7.75,4.27-22.9-3.13-45.87-5.82-68.83-8.58-12.55-1.51-25.13-2.82-37.69-4.26-.97-.11-1.9-.5-3.38-.9,2.11-4.89,4.09-9.55,6.13-14.18,43.52-98.95,87.03-197.9,130.6-296.83,1.33-3.02,1.79-5.63.5-8.96-40.97-105.54-81.82-211.12-122.7-316.69-.48-1.23-1.07-2.43-1.61-3.64,38.65,0,77.3,0,115.95,0,23.23,59.53,46.46,119.06,69.71,178.58.27.69.8,1.28,1.72,2.7C2390.9,120.35,2415.97,60.17,2441.03,0c39.32,0,78.64,0,117.95,0Z"/><path class="cls-1" d="M755.7,0c-.06,33.75-.12,67.5-.18,101.25,0,1.95,0,3.9,0,6.31h-190.71c-.14,2.01-.35,3.6-.35,5.18-.02,45.06.05,90.12-.11,135.18-.02,4.5,1.33,5.54,5.67,5.46,44.3-.78,88.61-1.35,132.91-1.98,1.65-.02,3.3,0,5.39,0v106.93c-47.78.54-95.6,1.08-143.53,1.63v161.48c63.57-3.96,126.8-7.9,190.41-11.86v104.09c-99.29,7.84-198.46,15.66-298.31,23.54v-7.19c0-207.52,0-415.03,0-622.55,0-2.49-.05-4.99-.07-7.48h298.88Z"/><path class="cls-1" d="M1528.4,0c.12,1.98.33,3.97.33,5.95.02,31.59.02,63.19,0,94.78,0,2.11-.18,4.22-.29,6.84h-195v138.17h6.21c45.15,0,90.29.08,135.44-.11,4.75-.02,5.84,1.48,5.82,5.91-.16,31.76-.18,63.52.02,95.28.03,4.85-1.02,6.47-6.3,6.45-44.81-.24-89.63-.14-134.44-.14h-6.86c-.12,2.76-.31,5.02-.31,7.28-.02,76.99-.01,153.98-.01,230.97q0,6.83-6.68,6.84c-30.82,0-61.64,0-92.46,0-1.95,0-3.9,0-6.35,0V0C1327.81,0,1428.1,0,1528.4,0Z"/><path class="cls-1" d="M1157.54,0c-.06,33.75-.12,67.49-.17,101.24,0,1.96,0,3.91,0,6.32h-111.83v496.91h-107.71V107.79h-112.15V0C936.3,0,1046.92,0,1157.54,0Z"/><path class="cls-1" d="M1704.33,0c-.02,101.58-.04,203.16-.05,304.74,0,64.17,0,128.35,0,192.52v6.16c61.59,3.32,122.51,6.61,183.59,9.9v105.49c-96.89-4.82-193.58-9.64-291.13-14.5v-5.85c0-197.17,0-394.35-.02-591.52,0-2.31-.23-4.63-.36-6.94,35.99,0,71.97,0,107.96,0Z"/><path class="cls-1" d="M2085.18,0v634.94c-10.86-.96-21.22-2.01-31.61-2.76-22.91-1.66-45.83-3.31-68.76-4.62-4.29-.24-5.28-1.66-5.18-5.6.23-9.64.08-19.29.08-28.93,0-195.21,0-390.41-.02-585.62,0-2.47-.3-4.94-.46-7.41,35.32,0,70.64,0,105.96,0Z"/></g></g></svg>