<?xml version="1.0" encoding="UTF-8"?><svg id="Layer_2" xmlns="http://www.w3.org/2000/svg" viewBox="0 0 364.68 365.51"><defs><style>.cls-1{stroke-width:0px;}</style></defs><g id="Layer_4"><path class="cls-1" d="M364.64,182.58c0,37.81-.12,75.63.04,113.44.14,34.64-26.25,64.86-60.69,68.93-4.54.54-9.16.5-13.75.5-64.75.02-129.5,0-194.26-.02-9.94,0-19.89.22-29.83-.08-20.84-.63-37.41-9.95-50.65-25.69C4.95,327.11,0,312.56.01,296.22c.02-51.5,0-102.99,0-154.49,0-23.79.16-47.59,0-71.38C-.18,45.36,10.71,26.26,30.59,11.9,41.67,3.88,54.25.06,67.87.04,124.72-.03,181.57,0,238.42,0c19.29,0,38.58.07,57.87,0,35.06-.13,58.71,26.77,65.28,48.28,2.41,7.89,3.1,15.96,3.09,24.16-.04,36.71-.02,73.42-.02,110.13h0ZM307.64,304.98c0-1.07,0-1.82,0-2.57,0-30.51.16-61.02-.07-91.52-.06-7.78-.74-15.65-2.14-23.3-2.75-15-8.99-28.31-21.29-38.07-11.11-8.82-23.99-12.44-37.97-12.64-18.52-.26-34.07,6.07-45.75,20.84-1.22,1.55-2.38,3.15-3.57,4.72-.19-.06-.38-.12-.57-.18v-20.93h-53.99v164.43h53.94c.05-.93.14-1.68.14-2.42,0-29.83-.09-59.66.07-89.48.03-4.87.14-10.18,2.02-14.51,5.83-13.45,17.39-22.43,34.17-19.57,8.07,1.37,13.84,5.75,17.29,13.15,3.12,6.68,4.12,13.83,4.14,21.1.08,29.23.05,58.47.06,87.7,0,1.06,0,2.13,0,3.27h53.52ZM56.25,304.95h53.95v-164.51h-53.95v164.51ZM85.43,118.07c1.19-.07,2.38-.1,3.56-.22,25.82-2.76,30.73-28.52,21.41-42.92-7.05-10.9-17.41-14.51-29.84-13.6-18.59,1.36-29.68,15.4-26.48,33.56,2.44,13.82,16.13,23.94,31.36,23.18Z"/></g></svg>