<?xml version="1.0" encoding="UTF-8"?><svg id="Layer_2" xmlns="http://www.w3.org/2000/svg" viewBox="0 0 582.34 395.44"><defs><style>.cls-1{stroke-width:0px;}</style></defs><g id="Layer_4"><path class="cls-1" d="M582.3,73.39c-.09-22.09-7.7-40.99-24.5-55.73C543.67,5.26,527,0,508.32.01c-93.52.09-187.03.04-280.55.04C176.82.05,125.88.15,74.94,0c-16.88-.05-32.38,3.86-46.06,14.02C13.24,25.63,3.98,41.13.68,60.27c-.12.68-.45,1.32-.68,1.99v269.16c.86,3.86,1.53,7.77,2.61,11.56,8.49,29.84,33.89,50.11,64.84,51.87,1.06.06,2.1.38,3.15.58h441.1c3.34-.44,6.69-.8,10.01-1.32,35.21-5.56,60.53-34.91,60.57-70.53.08-63.64.02-127.28.02-190.92,0-19.76.07-39.52-.02-59.28ZM475.81,46.57c-1.4,1.02-2.2,1.67-3.06,2.22-59.58,38.38-119.17,76.74-178.71,115.17-2.13,1.38-3.6,1.39-5.74,0-59.54-38.43-119.13-76.79-178.71-115.17-.86-.56-1.67-1.2-3.08-2.23h369.31ZM509.3,348.74c-145.46.02-290.91.02-436.37,0-16.13,0-26.45-10.29-26.46-26.32-.02-81.96,0-163.92,0-245.88v-4.04c7.13,4.57,13.53,8.67,19.93,12.79,69.43,44.61,138.87,89.2,208.28,133.85,11.22,7.22,22.09,7,33.29-.2,74.69-48.08,149.45-96.06,224.19-144.06,1-.64,2.03-1.23,3.48-2.11.09,1.53.22,2.66.22,3.79,0,81.84.02,163.68,0,245.52,0,16.22-10.37,26.67-26.55,26.68Z"/></g></svg>