<?xml version="1.0" encoding="UTF-8"?><svg id="Layer_2" xmlns="http://www.w3.org/2000/svg" viewBox="0 0 414.4 414.39"><defs><style>.cls-1{stroke-width:0px;}</style></defs><g id="Layer_4"><path class="cls-1" d="M311,246.13c-13.95-6.9-28-13.6-42.15-20.08-3.89-1.78-7.4-.98-10.35,3.08-4.77,6.58-10.25,12.64-15.45,18.91-2.56,3.09-5.62,3.54-9.34,2.09-29.54-11.5-52.19-31.03-68.57-58.1-2.78-4.59-2.02-7.97,1.45-11.52,2.9-2.97,5.75-6.03,8.24-9.34,4.22-5.61,6.7-11.14,2.93-18.66-5.32-10.62-9.39-21.88-13.85-32.92-2.51-6.21-5.9-10.74-13.61-9.47-1.58.26-3.29-.3-4.94-.49-5.64-.64-10.59,1.13-14.67,4.84-12.28,11.18-18.95,24.98-19.14,41.83.45,3.95.66,7.95,1.4,11.85,3.1,16.38,11.9,29.94,21.24,43.35,13.69,19.65,29.63,37.1,48.47,51.88,17.36,13.62,37.49,21.57,58.25,28.21,11.57,3.7,22.93,6.34,35.53,4.17,19-3.27,35.2-17.97,37.52-37.05.51-4.19,2.63-9.81-2.95-12.57Z"/><path class="cls-1" d="M406.53,146.91c-12.44-43.33-36.63-78.78-72.55-105.67C286.35,5.59,232.64-6.81,174.07,3.51c-48.66,8.58-89.05,32.32-120.32,70.42C17.84,117.7,2.99,168.17,9,224.65c2.96,27.78,11.78,53.57,25.5,77.83,1.12,1.98,1.39,5.15.69,7.32-5.64,17.48-11.61,34.86-17.49,52.26-5.8,17.18-11.62,34.37-17.7,52.33,35.95-11.49,70.97-22.57,105.9-33.96,5.03-1.64,8.96-.9,13.51,1.39,44.49,22.34,91.2,27.5,139.45,16.12,42.65-10.06,78.35-32.17,106.98-65.42,26.72-31.03,42.29-67.13,47.17-107.66,3.17-26.32.86-52.36-6.49-77.95ZM342.32,309.8c-24.08,29.04-54.61,47.99-91.36,56.69-46,10.89-89.22,3.72-129.66-20.53-3.07-1.84-5.62-2.42-9.14-1.26-19.93,6.55-39.96,12.83-60.88,19.49,6.74-19.89,13.09-38.88,19.65-57.8,1.26-3.63.88-6.27-1.36-9.55-21.91-32.09-31.99-67.75-29.12-106.41,5.63-75.68,57.69-136.55,132.38-153.69,51.34-11.78,98.96-1.44,141.28,30.29,34.64,25.98,56.68,60.55,64.56,103.07,9.62,51.91-2.5,98.87-36.36,139.71Z"/></g></svg>