<?xml version="1.0" encoding="UTF-8"?><svg id="Layer_2" xmlns="http://www.w3.org/2000/svg" viewBox="0 0 267.44 626.36"><defs><style>.cls-1{fill:#fff;stroke-width:0px;}</style></defs><g id="Layer_2-2"><path class="cls-1" d="M267.11,491.29c3.09,46.57-15.27,95.19-63.91,116.63-17.06,7.52-34.09,14.98-53.16,17.74-4.49,1.05-12.26.65-18.24.47-34.93-1.08-66.33-16.05-95.06-37.2-19.2-14.14-28.62-35.79-33.67-58.66-4.81-21.82-4.1-43.08,3.1-64.15,2.05-6,2.69-12.13,2.93-18.3l2.66.09c0,.05,0,.08,0,.08,1.61-5.75,3.46-11.45,4.78-17.27,3.53-15.67,5.43-36.5,9.35-52.07,3.94-15.68,10.78-30.05,23.18-41.05,14.17-12.58,29.47-23.52,47.38-30.16,15.92-5.91,33.23-5.53,50.48-3.74,28.27,2.91,52.11,16.3,73.43,34.34,6.17,5.22,11.04,11.47,14.56,18.78,5.78,12.02,8.85,24.85,10.91,37.9,3.43,21.71,7.52,43.25,14.17,64.23.34,1.08.67,2.17,1,3.25.13-.33.11-1.27,0-2.56l1.97-.16c.79,10.64,3.42,21.16,4.13,31.81ZM235.39,572.27c21.16-30.29,27.86-60.72,18.68-96.87-4.38-17.22-9.41-34.28-13.25-51.61-3.19-14.39-4.72-29.15-7.65-43.61-2.56-12.66-6.72-22.91-16.65-31.97-14.6-13.32-30.73-24.36-49.68-30.7-8.88-2.97-17.96-5.03-27.62-5.73,12.33,8.18,7.97,17.78,9.67,29.01-1.36-2.64-3.25-4.31-4.11-5.98,2.12,10.19,3.83,20.05-2.06,29.32-.55-.9-3.68-7.14-4-7.67-.17,8.33-1.35,13.17-2.61,17.43-3.69-9.77-7.02-18.8-10.52-27.77-2.04-5.23-4.58-10.26-6.45-15.54-2.34-6.62-3.05-11.3,2.23-17.92-21.29,3.04-39.35,12.28-55.87,24.4-12.5,9.18-24.23,19.1-29.47,34.23-3.5,10.07-6.72,17.43-8.26,27.93-3.3,22.4-7.16,44.63-13.55,66.38-5.9,20.12-7.73,40.32-3.31,61.16,4.03,19.02,10.01,33.8,23.85,48.1,8.25,8.52,17.77,15.38,27.89,21.47,41.65,25.06,84.69,29.69,129.43,8.78,16.79-7.84,32.58-17.48,43.31-32.84Z"/><path class="cls-1" d="M262.95,459.14c.01.11.02.23.03.34l-1.97.16c-.42-4.7-2.09-14.03-2.2-15.04-1.55-15.73-.83-17.98-1.98-33.74-1.13-15.52-2.02-31.01-5.4-46.29-7.56-34.16-26.94-58.35-59.52-71.62l.03-.08,3.85,1.57c1.77.72,3.88.22,5.13-1.36l.21-.27c1.18-1.5,2.28-2.99,3.36-4.49,31.28,15.89,48.06,42.12,53.93,76.11,2.77,16.04,3.04,32.21,2.92,48.47-.12,15.41.53,30.86,1.61,46.24Z"/><path class="cls-1" d="M251.18,155.3v1.01s-.06,2.47-.06,2.47c-.02,3.3-.27,6.58-.45,9.86-.53,6.54-1.43,13.02-2.59,19.43-1.22,6.4-2.69,12.73-4.44,18.96-1.79,6.22-3.78,12.37-6.01,18.4-2.23,6.04-4.71,11.97-7.35,17.82-2.68,5.82-5.52,11.56-8.52,17.2-3.06,5.62-6.26,11.14-9.67,16.54-1.7,2.7-3.46,5.36-5.26,8.01-.78,1.11-1.55,2.22-2.34,3.32-.17-.09-.35-.18-.53-.27-2.3-1.16-4.57-2.38-6.96-3.63l-1.13-.51c.75-1.38,1.51-2.77,2.23-4.18,1.43-2.72,2.82-5.47,4.17-8.25,2.72-5.53,5.34-11.1,7.78-16.75,2.49-5.62,4.83-11.3,6.98-17.03,2.2-5.72,4.23-11.49,6.11-17.28,1.84-5.82,3.55-11.65,5.04-17.53,1.48-5.87,2.73-11.78,3.77-17.71,1.05-5.93,1.73-11.88,2.27-17.83.17-2.97.42-5.95.43-8.91l.05-2.23.02-.56v-6.36c0-1.6-.07-3.05-.1-4.57-.04-1.52-.05-3.01-.12-4.54-.16-3.04-.23-6.1-.46-9.14-.35-6.09-.95-12.16-1.67-18.21-.73-6.05-1.66-12.07-2.79-18.06-1.14-5.99-2.4-11.96-3.91-17.89-1.46-5.95-3.16-11.86-4.9-17.8-1.75-5.94-3.69-11.86-5.54-17.88-1.82-6.02-3.7-12.11-5.15-18.38-.87-3.63-1.6-7.33-2.12-11.07.65-.97,1.3-1.92,1.97-2.86.82-1.16,1.72-2.38,2.5-3.4l1.44-.42c1.2,5.16,2.75,10.23,4.61,15.25,2.12,5.74,4.43,11.47,6.87,17.23,2.41,5.77,4.79,11.61,7.1,17.53,2.32,5.91,4.44,11.95,6.39,18.06,1.91,6.12,3.67,12.31,5.13,18.58,1.49,6.26,2.76,12.59,3.73,18.95,1.02,6.36,1.8,12.76,2.33,19.17.31,3.2.5,6.41.69,9.61.15,3.21.29,6.54.36,9.68l.08,4.7v1.18s.02.29.02.29Z"/><path class="cls-1" d="M236.05,475.05c.05.18.09.37.14.55-3.32,1.16-6.65,2.33-9.97,3.49,0,.5-.02.99-.02,1.49l9.72,1.62c.02.15.04.29.06.43-3.83.57-7.65,1.14-11.14,1.66-1.78,3.85-3.01,7.77-5.2,11.05-5.32,7.91-14.21,7.78-19.78.04-6.13-8.52-6.4-23.45-.03-31.84,2.16-2.84,5.63-4.7,8.28-6.83-5.59-3.76-19.18-3.98-27.19.26-8.39,4.44-12.33,11.87-14.58,20.58l-.34-.09c-.34-5.13-5.8-3.42-7.41-6.43,1.87.25,3.7.62,5.54.7,1.02.04,2.07-.41,3.11-.64-.55-.89-.93-1.96-1.67-2.63-1.87-1.7-3.9-3.22-5.52-5.33,2.83,1.34,5.65,2.68,8.48,4.02.18-.26.36-.52.55-.79-2.47-2.98-4.94-5.96-7.41-8.95.18-.14.36-.29.54-.44,2.81,1.99,5.62,3.99,8.44,5.98.41-.16.81-.32,1.22-.48-.26-1.11-.24-2.41-.84-3.28-1.9-2.72-4.03-5.28-5.63-8.24l9.45,7.47c.32-.27.65-.54.98-.81-1.85-3.68-3.69-7.36-5.54-11.05.18-.11.36-.21.54-.32,2.62,3.02,5.25,6.04,7.87,9.06.35-.17.7-.35,1.05-.53-1.2-3.97-2.39-7.93-3.59-11.9l.42-.24,6.21,10.26c.3-.1.59-.2.89-.3-.51-4.65-1.02-9.3-1.53-13.96.17-.03.33-.07.5-.11,1.48,4.3,2.96,8.6,4.45,12.9.4-.06.81-.12,1.22-.18-.25-5.54-.5-11.08-.75-16.61.18-.01.36-.02.54-.04,1.17,5.17,2.33,10.33,3.5,15.49h.93l2.46-16.92c.2.01.39.02.58.03v16.58c.41.08.83.16,1.25.24,1.2-5.11,2.39-10.22,3.64-15.54v14.97c.21.11.42.23.64.34,2.23-5.07,4.46-10.15,6.69-15.22.11.02.22.04.32.06-1.02,5.36-2.04,10.73-3.07,16.09.22.15.43.3.64.45,3.24-4.11,6.48-8.22,9.72-12.34.15.07.31.13.47.19-2.02,4.4-4.04,8.79-6.06,13.19.25.22.49.45.74.68,3.75-3.54,7.5-7.08,11.26-10.62.15.09.31.19.47.29-2.57,3.99-5.13,7.99-7.7,11.98.23.32.45.64.67.95,4.09-2.85,8.18-5.71,12.27-8.56l.48.3c-2.93,3.45-5.86,6.9-8.79,10.34.1.19.21.38.31.57,3.38-1.7,6.76-3.41,10.13-5.11l.39.45c-2.69,2.52-5.37,5.04-8.88,8.32,4.25-1.69,7.56-3,10.87-4.32.11.19.22.37.32.55-2.78,2.2-5.57,4.39-8.36,6.58.1.3.21.59.32.88,3.3-.98,6.61-1.96,9.91-2.95.12.14.24.28.35.42-3.14,2.15-6.28,4.29-9.42,6.43.17.45.34.9.51,1.36,3.12-.65,6.24-1.29,9.35-1.94.09.13.17.26.25.39-3,1.76-5.99,3.52-9.99,5.86h10.77ZM209.94,471.52c-.09-.91.16-2.24-.39-2.92-1.43-1.8-3.19-4.55-4.86-4.59-1.64-.03-3.82,2.58-4.84,4.51-.81,1.54-.55,3.87-.19,5.74.51,2.63,1.74,5.17,4.93,5.22,3.23.05,4.28-2.54,5.07-5.11.26-.85.19-1.81.28-2.85Z"/><path class="cls-1" d="M213.38,2.86c.16.74.32,1.48.49,2.21l-1.44.42-5.26-1.89-1.8-.32c.86-.77,1.75-1.51,2.75-2.31.6-.64,1.41-.97,2.22-.97.73,0,1.46.27,2.04.8.47.45.78,1,.9,1.59l.1.47Z"/><path class="cls-1" d="M207.17,3.6l5.26,1.89c-.78,1.02-1.68,2.24-2.5,3.4-.67.94-1.32,1.89-1.97,2.86-.38-2.7-.65-5.42-.79-8.15Z"/><path class="cls-1" d="M207.96,11.75l-.48.72c-1.59,2.42-3.16,4.86-4.64,7.36-2.94,5-5.74,10.08-8.32,15.26-1.3,2.59-2.54,5.2-3.76,7.82-1.2,2.63-2.37,5.27-3.49,7.93-2.24,5.33-4.33,10.7-6.25,16.14-1.92,5.44-3.71,10.91-5.31,16.45-1.66,5.52-3.08,11.1-4.44,16.7-2.69,11.2-4.78,22.55-6.42,33.97-1.6,11.43-2.73,22.93-3.47,34.49-.37,5.78-.62,11.57-.82,17.37l-.21,8.71-.08,8.73c-.02,2.91-.02,5.83.04,8.74,0,2.92.06,5.84.13,8.76.1,5.85.32,11.7.54,17.57l.4,8.81.45,8.83c.18,2.95.35,5.9.49,8.86.1,1.9.22,3.8.32,5.7l-10.58-2.84c-.11-.37-.22-.75-.33-1.12-.77-2.92-1.52-5.85-2.25-8.78-.68-2.95-1.35-5.89-1.99-8.85-.57-2.97-1.22-5.93-1.73-8.91-2.14-11.92-3.68-23.98-4.52-36.12-.45-6.06-.67-12.15-.79-18.24-.04-6.1-.05-12.21.26-18.31.1-3.05.31-6.1.49-9.15.26-3.05.48-6.1.81-9.14.55-6.1,1.45-12.16,2.38-18.22.94-6.06,2.17-12.07,3.49-18.06,1.3-6,2.91-11.93,4.63-17.83,1.72-5.89,3.71-11.71,5.83-17.48,2.17-5.75,4.5-11.44,7.09-17.01,2.59-5.58,5.38-11.06,8.41-16.4,3.03-5.35,6.27-10.57,9.78-15.61,1.75-2.53,3.55-5.01,5.44-7.44,1.87-2.43,3.81-4.81,5.84-7.12,2.02-2.31,4.09-4.59,6.26-6.76,1.1-1.09,2.21-2.16,3.35-3.21.29-.27.57-.53.86-.79l1.8.32c.14,2.73.41,5.45.79,8.15Z"/><path class="cls-1" d="M203.96,288.05c.18.09.36.18.53.27-1.08,1.5-2.18,2.99-3.36,4.49l-.21.27c-1.25,1.58-3.36,2.08-5.13,1.36l-3.85-1.57-35.01-14.24-.06-.03c-1.4-.57-2.33-1.81-2.57-3.2-.78-2.52-1.5-5.04-2.24-7.57l10.58,2.84c.02.33.03.65.05.98l-2.54-1.01,2.63,3.22c-.02-.74-.06-1.47-.09-2.21l32.74,13.07c.15-.27.29-.54.44-.81l1.13.51c2.39,1.25,4.66,2.47,6.96,3.63Z"/><path class="cls-1" d="M199.11,375.94c.15,3.54-2.75,6.64-6.25,6.71-3.28.06-6.33-2.81-6.49-6.13-.17-3.5,2.74-6.53,6.32-6.6,3.5-.06,6.28,2.54,6.42,6.02Z"/><path class="cls-1" d="M195.87,283.91c-.15.27-.29.54-.44.81l-32.74-13.07c-.02-.33-.03-.65-.05-.98l2.56.69c9.98,4.22,20.05,8.22,29.72,12.12l.95.43Z"/><path class="cls-1" d="M191.94,292.87l-.03.08c-11.48-4.68-23.05-9.17-34.55-13.83-13.97-5.68-28.04-5.68-42.1-.57-10.31,3.74-20.56,7.65-30.74,11.74l-.38-.93,26.37-10.73.06-.03c1.31-.54,2.31-1.71,2.57-3.2.77-2.47,1.47-4.95,2.2-7.44l4.08-1.51c3.87-.51,7.32-1.15,10.79-1.37,3.62-.23,7.26-.06,11.38-.06l10.47,2.81c.74,2.53,1.46,5.05,2.24,7.57.24,1.39,1.17,2.63,2.57,3.2l.06.03,35.01,14.24Z"/><path class="cls-1" d="M191.52,576.82c-2.26-1.89-4.72-3.6-6.73-5.73-2.11-2.25-3.79-4.91-5.98-7.82-.14.11-.29.21-.43.31l-.49-.68c-1.5-6.99-2.95-13.73-4.39-20.47.5-.16,1.01-.31,1.52-.46,2.3,13.13,7.64,24.71,16.5,34.85Z"/><path class="cls-1" d="M177.89,562.9l.49.68c-13.16,9.66-28.12,13.46-44.35,13.45-16.25,0-31.38-3.32-44.36-12.96l.38-1.04c29.62,11.04,58.95,10.65,87.84-.13Z"/><path class="cls-1" d="M166,477.46l.34.09c-.27,1.02-.51,2.06-.73,3.11-2.47-1.32-4.72-2.51-6.97-3.71.06-.21.11-.41.17-.61,2.19.34,4.39.68,7.19,1.12Z"/><path class="cls-1" d="M158.25,482.84q6.83-1.03,7.4,1.74c-2.63-.62-5.01-1.18-7.4-1.74Z"/><path class="cls-1" d="M162.69,271.65c.03.74.07,1.47.09,2.21l-2.63-3.22,2.54,1.01Z"/><path class="cls-1" d="M148.03,531.73c-3.89,3.61-9.03,6.19-14.24,6.11-4.73-.07-9.53-2.47-13.52-5.64,9.69,2.88,18.4,2.88,27.76-.47Z"/><path class="cls-1" d="M126.73,167.5c.31,6.1.3,12.21.26,18.31-.12,6.09-.34,12.18-.79,18.24-.84,12.14-2.38,24.2-4.52,36.12-.51,2.98-1.16,5.94-1.73,8.91-.64,2.96-1.31,5.9-1.99,8.85-.73,2.93-1.48,5.86-2.25,8.78-.12.42-.25.84-.37,1.25l-8.4,3.1.35-.42-2.54,1.01c.11-2.23.25-4.45.37-6.68.14-2.96.31-5.91.49-8.86l.45-8.83.4-8.81c.22-5.87.44-11.72.54-17.57.07-2.92.14-5.84.13-8.76.06-2.91.06-5.83.04-8.74l-.08-8.73-.21-8.71c-.2-5.8-.45-11.59-.82-17.37-.74-11.56-1.87-23.06-3.47-34.49-1.64-11.42-3.73-22.77-6.42-33.97-1.36-5.6-2.78-11.18-4.44-16.7-1.6-5.54-3.39-11.01-5.31-16.45-1.92-5.44-4.01-10.81-6.25-16.14-1.12-2.66-2.29-5.3-3.49-7.93-1.22-2.62-2.46-5.23-3.76-7.82-2.58-5.18-5.38-10.26-8.32-15.26-1.48-2.5-3.05-4.94-4.64-7.36-.8-1.21-1.1,4.1-2.6,10.35-1.45,6.27-3.33,12.36-5.15,18.38-1.85,6.02-3.79,11.94-5.54,17.88-1.74,5.94-3.44,11.85-4.9,17.8-1.51,5.93-2.77,11.9-3.91,17.89-1.13,5.99-2.06,12.01-2.79,18.06-.72,6.05-1.32,12.12-1.67,18.21-.23,3.04-.3,6.1-.46,9.14-.07,1.53-.08,3.02-.12,4.54-.03,1.52-.1,2.97-.09,4.57v4.7s-.01,1.17-.01,1.17v.49l.02.56.05,2.23c.01,2.96.26,5.94.43,8.91.54,5.95,1.22,11.9,2.27,17.83,1.04,5.93,2.29,11.84,3.77,17.71,1.49,5.88,3.2,11.71,5.04,17.53,1.88,5.79,3.91,11.56,6.11,17.28,2.15,5.73,4.49,11.41,6.98,17.03,2.44,5.65,5.06,11.22,7.78,16.75,1.35,2.78,2.74,5.53,4.17,8.25.86,1.68,1.78,3.34,2.67,4.99l22.43-8.95c-9.34,4.03-18.78,7.85-28.11,11.7l-.97.92c-.61.37-1.15.7-1.63,1-1.06-1.46-2.09-2.92-3.12-4.39-1.8-2.65-3.56-5.31-5.26-8.01-3.41-5.4-6.61-10.92-9.67-16.54-3-5.64-5.84-11.38-8.52-17.2-2.64-5.85-5.12-11.78-7.35-17.82-2.23-6.03-4.22-12.18-6.01-18.4-1.75-6.23-3.22-12.56-4.44-18.96-1.16-6.41-2.06-12.89-2.59-19.43-.18-3.28-.43-6.56-.45-9.86l-.05-2.47v-.62s0-.39,0-.39v-.29s.02-1.18.02-1.18l.08-4.7c.07-3.14.21-6.47.36-9.68.19-3.2.38-6.41.69-9.61.53-6.41,1.31-12.81,2.33-19.17.97-6.36,2.24-12.69,3.73-18.95,1.46-6.27,3.22-12.46,5.13-18.58,1.95-6.11,4.07-12.15,6.39-18.06,2.31-5.92,4.69-11.76,7.1-17.53,2.44-5.76,4.75-11.49,6.87-17.23,2.12-5.74,3.85-11.54,5.1-17.46l.1-.47c.35-1.63,1.95-2.67,3.57-2.32.64.13,1.18.46,1.59.9,1.34,1.06,2.46,2.03,3.61,3.1,1.14,1.05,2.25,2.12,3.35,3.21,2.17,2.17,4.24,4.45,6.26,6.76,2.03,2.31,3.97,4.69,5.84,7.12,1.89,2.43,3.69,4.91,5.44,7.44,3.51,5.04,6.75,10.26,9.78,15.61,3.03,5.34,5.82,10.82,8.41,16.4,2.59,5.57,4.92,11.26,7.09,17.01,2.12,5.77,4.11,11.59,5.83,17.48,1.72,5.9,3.33,11.83,4.63,17.83,1.32,5.99,2.55,12,3.49,18.06.93,6.06,1.83,12.12,2.38,18.22.33,3.04.55,6.09.81,9.14.18,3.05.39,6.1.49,9.15Z"/><path class="cls-1" d="M106.94,271.06l8.4-3.1c-.73,2.49-1.43,4.97-2.2,7.44-.26,1.49-1.26,2.66-2.57,3.2l-.06.03-26.37,10.73-12.49,5.08c-1.86.76-3.94.15-5.13-1.36l-.21-.27c-.9-1.14-1.75-2.28-2.58-3.42.48-.3,1.02-.63,1.63-1l.97-.92c9.33-3.85,18.77-7.67,28.11-11.7l2.79-1.11,7.51-2.78c-.03.66-.06,1.32-.08,1.98l2.28-2.8Z"/><path class="cls-1" d="M112.44,473.82c.06.31.13.62.19.93-2.32.64-4.65,1.27-7.01,1.91q-.51,3.37,7.42,4.22c-1.48.32-3.01.47-4.41.99-1.14.42-2.12,1.26-3.18,1.92,1.16.65,2.26,1.45,3.49,1.89.9.32,1.97.15,3.28.73-7.98-1.3-10.54,4.04-13.92,9.51-4.9,7.92-13.95,7.55-19.47,0-6.32-8.65-6.47-23.61,0-32.14,1.83-2.41,4.54-4.16,7.04-6.39-10.02-4.33-20.3-5.1-30.15.6-6.77,3.92-10.32,9.84-12.38,16.76l-1.14-.35c-4.02-2.72-8.04-5.44-12.06-8.15.1-.16.19-.32.28-.47,4.18,1.64,8.35,3.29,12.52,4.94.14-.32.28-.63.42-.95-3.49-2.55-6.98-5.11-10.47-7.66.11-.19.23-.38.34-.57,3.96,1.67,7.91,3.34,11.86,5.01l.57-.96c-3.5-3.69-7-7.39-10.5-11.08l.44-.44c3.9,2.49,7.8,4.99,11.7,7.49.17-.18.34-.35.51-.52-3.26-4.16-6.53-8.33-9.79-12.49.15-.13.3-.27.45-.4,4.02,3.29,8.04,6.57,12.06,9.86.19-.17.38-.35.57-.52-2.87-4.67-5.75-9.34-8.63-14.01.17-.11.33-.22.49-.32,3.28,3.43,6.56,6.86,9.84,10.29.14-.09.28-.17.42-.26-1.89-3.71-3.77-7.43-5.66-11.14l.57-.33c3.04,3.49,6.09,6.99,9.13,10.48.3-.17.6-.33.9-.5-1.1-4.61-2.21-9.23-3.32-13.84.21-.06.42-.13.63-.19,1.93,3.91,3.86,7.82,5.79,11.73l.63-.3c-.5-5.26-1.01-10.52-1.52-15.77.15-.02.29-.03.44-.04,1.58,5.17,3.16,10.33,4.75,15.5.31-.04.62-.09.92-.13.32-5.88.64-11.75.96-17.62.15,0,.29-.01.44-.01.84,6.38,1.69,12.77,2.53,19.15.43.03.85.06,1.27.09,1.18-5.55,2.35-11.1,3.52-16.66.2.03.4.06.59.1v16.41c.36.11.71.22,1.06.33,1.74-4.86,3.48-9.71,5.22-14.57.13.01.25.02.38.03-.5,5.02-1.01,10.05-1.51,15.07.46.21.93.42,1.39.63,2.35-3.99,4.7-7.97,7.05-11.95.19.03.38.07.57.1-1.08,4.15-2.17,8.3-3.27,12.49q2.24,1.28,9.9-7.42c-1.56,3.32-3.12,6.63-4.69,9.97q2.64,2.78,10.48-4.3c-1.84,2.81-3.68,5.61-5.88,8.97,5.03,4.39,6.9-2.59,10.88-3.1-1.76,2.14-3.38,3.97-4.82,5.92-.66.91-.99,2.08-1.47,3.12,1.18-.15,2.39-.2,3.53-.49.94-.24,1.81-.77,2.99-.67-1.69,1.53-3.39,3.06-5.09,4.6.16.39.31.79.46,1.19,2.85-.25,5.7-.51,8.55-.76.04.15.09.29.13.44-2.51,1.04-5.01,2.07-7.51,3.11l.18.99h8.11ZM90.9,471.83c.11-4.61-2.37-8.26-5.55-8.14-2.97.11-5.24,3.64-5.19,8.07.06,4.48,2.47,7.87,5.52,7.75,2.9-.12,5.12-3.38,5.22-7.68Z"/><path class="cls-1" d="M107.29,270.64l-.35.42-2.2.82c0-.08,0-.15,0-.23l2.54-1.01Z"/><path class="cls-1" d="M106.94,271.06l-2.28,2.8c.02-.66.05-1.32.08-1.98l2.2-.82Z"/><path class="cls-1" d="M97.23,274.66l7.52-3.01c0,.08,0,.15,0,.23l-7.51,2.78Z"/><path class="cls-1" d="M97.23,274.66l-2.79,1.11c.46-.19.91-.39,1.37-.59l1.42-.52Z"/><path class="cls-1" d="M93.29,542.69c1.53,7-.76,13.34-3.95,20.08.24.09.47.18.71.26l-.38,1.04c-4.45,4.69-8.4,8.85-12.35,13.02-.35-.28-.71-.56-1.06-.84,9.04-9.53,14.73-20.68,17.03-33.56Z"/><path class="cls-1" d="M84.14,289.36l.38.93c-16.65,6.7-32.14,15.2-43.88,29.32-15.04,18.1-21.26,39.69-23.97,62.41-1.74,14.52-1.15,29.19-2.29,43.79-.57,7.36-.43,4.7-1.16,12.06.17.04-1.46,9.11-1.46,10.04l-2.66-.09c.18-4.64.13-9.29.3-13.93.59-16.45.33-32.94.95-49.4.55-14.43,3.21-28.57,8.07-42.22,8.01-22.46,22.31-39.7,43.06-51.53.7-.41,1.4-.83,2.25-1.35.83,1.14,1.68,2.28,2.58,3.42l.21.27c1.19,1.51,3.27,2.12,5.13,1.36l12.49-5.08Z"/><path class="cls-1" d="M76.79,369.92c3.65.07,6.26,2.92,6.1,6.66-.15,3.46-2.98,6.15-6.39,6.06-3.53-.08-6.28-3.11-6.12-6.74.15-3.51,2.87-6.04,6.41-5.98Z"/><path class="cls-1" d="M42.21,474.4l1.14.35c-.98,3.27-1.63,6.76-2.13,10.36-3.63-.64-6.99-1.23-10.35-1.83,0-.19.02-.38.03-.58,2.43-.28,4.87-.57,8.27-.97-3.77-1.64-6.73-2.92-9.68-4.2.04-.16.08-.33.12-.49,2.98.4,5.97.79,8.96,1.19l.27-.66c-3-1.83-6-3.66-9-5.48.07-.16.14-.32.21-.47,3.96,1.16,7.93,2.31,11.89,3.47l.27-.69Z"/></g></svg>